<?xml version="1.0"?>
<svg xmlns:rdf="http://www.w3.org/1999/02/22-rdf-syntax-ns#" xmlns="http://www.w3.org/2000/svg" xmlns:cc="http://creativecommons.org/ns#" xmlns:dc="http://purl.org/dc/elements/1.1/" xmlns:svg="http://www.w3.org/2000/svg" id="svg2" viewBox="0 0 128 128" version="1.0">
  <g id="layer1">
    <path id="path3218" d="m44.688 6.75c-7.309 0-13.25 5.941-13.25 13.25 0 5.481 3.342 10.208 8.093 12.219-0.495 2.005-0.75 4.092-0.75 6.25 0 8.116 3.739 15.343 9.563 20.125-2.616 1.356-5.015 3.013-7.125 4.937-2.352-2.137-5.449-3.437-8.875-3.437-7.309 0-13.25 5.91-13.25 13.218 0 7.05 5.519 12.819 12.468 13.219 0.139 2.294 0.578 4.495 1.25 6.625-0.134 0.107-0.276 0.198-0.406 0.313-5.421 4.772-4.744 14.411 1.5 21.501 6.245 7.09 15.704 8.99 21.125 4.22 1.454-1.28 2.475-2.92 3.063-4.75 2.177 0.4 4.441 0.62 6.75 0.62 1.824 0 3.599-0.15 5.344-0.4 0.583 1.87 1.585 3.54 3.062 4.84 5.421 4.77 14.912 2.87 21.156-4.22 6.014-6.84 6.834-16.007 2.032-20.936 1.02-2.788 1.611-5.732 1.687-8.813 0.386 0.034 0.793 0.094 1.187 0.094 7.308 0 13.218-5.941 13.218-13.25s-5.91-13.25-13.218-13.25c-4.166 0-7.884 1.926-10.312 4.937-2.236-2.138-4.817-3.962-7.656-5.437 5.832-4.781 9.562-12.033 9.562-20.156 0-1.878-0.216-3.704-0.594-5.469 5.194-1.79 8.938-6.732 8.938-12.531 0-7.309-5.941-13.219-13.25-13.219-5.05 0-9.455 2.808-11.688 6.969-2.942-1.153-6.119-1.813-9.468-1.813-2.964 0-5.814 0.525-8.469 1.438-2.218-4.208-6.603-7.094-11.687-7.094z" fill-rule="evenodd" stroke="#000" stroke-linecap="square" stroke-width="6" fill="#d45500"/>
    <path id="path2407" d="m98.142 84.841c0 16.679-14.923 30.219-33.311 30.219s-33.311-13.54-33.311-30.219 14.923-30.215 33.311-30.215 33.311 13.536 33.311 30.215z" fill-rule="evenodd" stroke="#000" stroke-linecap="square" stroke-width="2.4" fill="#d45500"/>
    <path id="path2401" d="m44.688 6.75c-7.309 0-13.25 5.941-13.25 13.25 0 5.481 3.342 10.208 8.093 12.219-0.495 2.005-0.75 4.092-0.75 6.25 0 14.385 11.677 26.062 26.063 26.062 14.385 0 26.062-11.677 26.062-26.062 0-1.878-0.216-3.704-0.594-5.469 5.194-1.79 8.938-6.732 8.938-12.531 0-7.309-5.941-13.219-13.25-13.219-5.05 0-9.455 2.808-11.688 6.969-2.942-1.153-6.119-1.813-9.468-1.813-2.964 0-5.814 0.525-8.469 1.438-2.218-4.208-6.603-7.094-11.687-7.094z" fill-rule="evenodd" stroke="#000" stroke-linecap="square" stroke-width="2.4" fill="#d45500"/>
    <path id="path2409" d="m45.571 73.321c0 7.309-5.932 13.24-13.241 13.24-7.308 0-13.24-5.931-13.24-13.24s5.932-13.24 13.24-13.24c7.309 0 13.241 5.931 13.241 13.24z" fill-rule="evenodd" stroke="#000" stroke-linecap="square" stroke-width="2.4" fill="#d45500"/>
    <path id="path2411" d="m112.54 72.371c0 7.309-5.93 13.24-13.241 13.24-7.309 0-13.241-5.931-13.241-13.24s5.932-13.24 13.241-13.24c7.311 0 13.241 5.931 13.241 13.24z" fill-rule="evenodd" stroke="#000" stroke-linecap="square" stroke-width="2.4" fill="#d45500"/>
    <path id="path3196" d="m53.55 97.685c6.244 7.095 6.913 16.725 1.492 21.495s-14.889 2.89-21.134-4.2c-6.244-7.1-6.913-16.729-1.492-21.501s14.889-2.888 21.134 4.206z" fill-rule="evenodd" stroke="#000" stroke-linecap="square" stroke-width="2.713" fill="#d45500"/>
    <path id="path3198" d="m74.754 98c-6.244 7.09-6.913 16.72-1.492 21.5 5.421 4.77 14.889 2.88 21.134-4.21 6.244-7.09 6.914-16.724 1.492-21.496-5.421-4.772-14.889-2.888-21.134 4.206z" fill-rule="evenodd" stroke="#000" stroke-linecap="square" stroke-width="2.713" fill="#d45500"/>
    <path id="path3201" d="m77.947 46.847c0 7.309-5.931 13.24-13.24 13.24s-13.24-5.931-13.24-13.24 5.931-13.24 13.24-13.24 13.24 5.931 13.24 13.24z" fill-rule="evenodd" stroke="#000" stroke-linecap="square" stroke-width="2.4" fill="#d38d5f"/>
    <path id="path3203" fill-rule="evenodd" d="m58.284 29.215c0 2.294-1.862 4.156-4.156 4.156s-4.156-1.862-4.156-4.156 1.862-4.156 4.156-4.156 4.156 1.862 4.156 4.156z"/>
    <path id="path3205" fill-rule="evenodd" d="m80.45 29.551c0 2.294-1.862 4.156-4.157 4.156-2.294 0-4.156-1.862-4.156-4.156s1.862-4.156 4.156-4.156c2.295 0 4.157 1.862 4.157 4.156z"/>
    <path id="path3207" fill-rule="evenodd" d="m69.031 40.97c0 2.294-1.862 4.156-4.156 4.156s-4.156-1.862-4.156-4.156 1.862-4.156 4.156-4.156 4.156 1.862 4.156 4.156z"/>
    <path id="path3231" stroke-linejoin="round" d="m57 49.803c2 3.403 6.632 3.316 7.831-1.131 2.676 5.856 6.918 3.147 8.169 1.406" stroke="#000" stroke-linecap="round" stroke-width="2" fill="none"/>
  </g>
  <metadata>
    <rdf:RDF>
      <cc:Work>
        <dc:format>image/svg+xml</dc:format>
        <dc:type rdf:resource="http://purl.org/dc/dcmitype/StillImage"/>
        <cc:license rdf:resource="http://creativecommons.org/licenses/publicdomain/"/>
        <dc:publisher>
          <cc:Agent rdf:about="http://openclipart.org/">
            <dc:title>Openclipart</dc:title>
          </cc:Agent>
        </dc:publisher>
        <dc:title>teddy bear icon</dc:title>
        <dc:date>2009-07-01T21:21:59</dc:date>
        <dc:description>clip art, clipart, icon, icon, image, media, public domain, svg, teddy, teddy, toy, toy, </dc:description>
        <dc:source>http://openclipart.org/detail/26940/teddy-bear-icon-by-pitr</dc:source>
        <dc:creator>
          <cc:Agent>
            <dc:title>pitr</dc:title>
          </cc:Agent>
        </dc:creator>
        <dc:subject>
          <rdf:Bag>
            <rdf:li>clip art</rdf:li>
            <rdf:li>clipart</rdf:li>
            <rdf:li>icon</rdf:li>
            <rdf:li>image</rdf:li>
            <rdf:li>media</rdf:li>
            <rdf:li>public domain</rdf:li>
            <rdf:li>svg</rdf:li>
            <rdf:li>teddy</rdf:li>
            <rdf:li>toy</rdf:li>
          </rdf:Bag>
        </dc:subject>
      </cc:Work>
      <cc:License rdf:about="http://creativecommons.org/licenses/publicdomain/">
        <cc:permits rdf:resource="http://creativecommons.org/ns#Reproduction"/>
        <cc:permits rdf:resource="http://creativecommons.org/ns#Distribution"/>
        <cc:permits rdf:resource="http://creativecommons.org/ns#DerivativeWorks"/>
      </cc:License>
    </rdf:RDF>
  </metadata>
</svg>
